<?xml version="1.0" standalone="no"?>
<!DOCTYPE svg PUBLIC "-//W3C//DTD SVG 1.1//EN" "http://www.w3.org/Graphics/SVG/1.1/DTD/svg11.dtd" >
<svg xmlns="http://www.w3.org/2000/svg">
<metadata></metadata>
<defs>
<font id="mecano_npsans" horiz-adv-x="802" >
<font-face units-per-em="2048" ascent="1638" descent="-410" />
<missing-glyph horiz-adv-x="344" />
<glyph unicode="&#xfb01;" horiz-adv-x="1003" d="M57 0v1835h574v-229h-344v-574h229v-229h-229v-803h-230zM717 0v1835h229v-1835h-229z" />
<glyph unicode="&#xfb02;" horiz-adv-x="1318" d="M57 0v1835h574v-229h-344v-574h229v-229h-229v-803h-230zM717 0v1835h229v-1606h344v-229h-573z" />
<glyph horiz-adv-x="0" />
<glyph horiz-adv-x="682" />
<glyph unicode=" "  horiz-adv-x="344" />
<glyph unicode="&#x09;" horiz-adv-x="344" />
<glyph unicode="&#xa0;" horiz-adv-x="344" />
<glyph unicode="!" horiz-adv-x="344" d="M57 0v229h230v-229h-230zM57 459v1376h230v-1376h-230z" />
<glyph unicode="&#x22;" horiz-adv-x="688" d="M29 1376l57 459h229l-57 -459h-229zM373 1376l57 459h229l-57 -459h-229z" />
<glyph unicode="#" horiz-adv-x="1318" d="M0 459l57 229h230l114 459h-229l57 229h230l114 459h230l-115 -459h172l115 459h229l-114 -459h229l-57 -229h-230l-114 -459h229l-57 -229h-230l-115 -459h-229l115 459h-172l-115 -459h-229l114 459h-229zM516 688h172l115 459h-172z" />
<glyph unicode="$" d="M57 328v131h230v-115q0 -54 29.5 -84.5t84.5 -30.5t85 30.5t30 84.5v344q0 54 -30 84.5t-85 30.5h-34q-87 0 -155.5 34t-111.5 109.5t-43 183.5v377q0 161 88 244.5t222 83.5h69q134 0 221.5 -83.5t87.5 -244.5v-131h-229v115q0 54 -30 84.5t-85 30.5t-84.5 -30.5 t-29.5 -84.5v-344q0 -54 29.5 -84.5t84.5 -30.5h35q64 0 119 -20t98 -59t67.5 -102.5t24.5 -145.5v-377q0 -161 -87.5 -244.5t-221.5 -83.5h-69q-134 0 -222 83.5t-88 244.5zM244 -287l28 230h230l-29 -230h-229zM285 1892l57 230h229l-57 -230h-229z" />
<glyph unicode="%" horiz-adv-x="1892" d="M57 1245v262q0 161 88 244.5t222 83.5h69q134 0 221.5 -83.5t87.5 -244.5v-262q0 -82 -24.5 -145.5t-67.5 -102.5t-98 -59t-119 -20h-69q-87 0 -155.5 34t-111.5 109.5t-43 183.5zM287 1262q0 -54 29.5 -84.5t84.5 -30.5t85 30.5t30 84.5v229q0 54 -30 84.5t-85 30.5 t-84.5 -30.5t-29.5 -84.5v-229zM717 0l229 1835h230l-230 -1835h-229zM1147 328v262q0 161 87.5 244.5t221.5 83.5h70q134 0 221.5 -83.5t87.5 -244.5v-262q0 -161 -87.5 -244.5t-221.5 -83.5h-70q-134 0 -221.5 83.5t-87.5 244.5zM1376 344q0 -54 30 -84.5t85 -30.5 t85 30.5t30 84.5v229q0 54 -30 84.5t-85 30.5t-85 -30.5t-30 -84.5v-229z" />
<glyph unicode="&#x26;" horiz-adv-x="888" d="M57 328v475q0 172 117 229q-117 58 -117 230v245q0 161 88 244.5t222 83.5h69q134 0 221.5 -83.5t87.5 -244.5v-131h-229v115q0 54 -30 84.5t-85 30.5t-84.5 -30.5t-29.5 -84.5v-229q0 -54 29.5 -84.5t84.5 -30.5q145 0 230 -78q43 37 95 57.5t134 20.5v-229 q-55 0 -85 -30.5t-30 -84.5v-459q0 -54 30 -84.5t85 -30.5v-229q-83 0 -135.5 20t-93.5 58q-89 -78 -230 -78h-34q-134 0 -222 83.5t-88 244.5zM287 344q0 -54 29.5 -84.5t84.5 -30.5t85 30.5t30 84.5v459q0 54 -30 84.5t-85 30.5q-57 0 -85.5 -31t-28.5 -84v-459z" />
<glyph unicode="'" horiz-adv-x="344" d="M29 1376l57 459h229l-57 -459h-229z" />
<glyph unicode="(" horiz-adv-x="544" d="M57 328v1179q0 161 88 244.5t222 83.5h149v-229h-115q-55 0 -84.5 -30.5t-29.5 -84.5v-1147q0 -54 29.5 -84.5t84.5 -30.5h115v-229h-149q-134 0 -222 83.5t-88 244.5z" />
<glyph unicode=")" horiz-adv-x="544" d="M29 0v229h114q55 0 85 30.5t30 84.5v1147q0 54 -30 84.5t-85 30.5h-114v229h149q134 0 221.5 -83.5t87.5 -244.5v-1179q0 -161 -87.5 -244.5t-221.5 -83.5h-149z" />
<glyph unicode="*" horiz-adv-x="745" d="M29 1376v230h229v229h229v-229h230v-230h-230v-229h-229v229h-229z" />
<glyph unicode="+" horiz-adv-x="1032" d="M57 803v229h344v344h230v-344h344v-229h-344v-344h-230v344h-344z" />
<glyph unicode="," horiz-adv-x="344" d="M29 -229l57 458h229l-57 -458h-229z" />
<glyph unicode="-" horiz-adv-x="458" d="M57 803v229h344v-229h-344z" />
<glyph unicode="." horiz-adv-x="344" d="M57 0v229h230v-229h-230z" />
<glyph unicode="/" horiz-adv-x="516" d="M29 0l229 1835h229l-229 -1835h-229z" />
<glyph unicode="0" d="M57 328v1179q0 161 88 244.5t222 83.5h69q134 0 221.5 -83.5t87.5 -244.5v-1179q0 -161 -87.5 -244.5t-221.5 -83.5h-69q-134 0 -222 83.5t-88 244.5zM287 344q0 -54 29.5 -84.5t84.5 -30.5t85 30.5t30 84.5v1147q0 54 -30 84.5t-85 30.5t-84.5 -30.5t-29.5 -84.5v-1147z " />
<glyph unicode="1" horiz-adv-x="430" d="M29 1376v230q55 0 84.5 30t29.5 84v115h230v-1835h-230v1403q-52 -27 -114 -27z" />
<glyph unicode="2" d="M57 0v590q0 161 88 244.5t222 83.5h34q55 0 85 30t30 84v459q0 54 -30 84.5t-85 30.5t-84.5 -30.5t-29.5 -84.5v-115h-230v131q0 161 88 244.5t222 83.5h69q134 0 221.5 -83.5t87.5 -244.5v-491q0 -161 -87.5 -244.5t-221.5 -83.5h-35q-55 0 -84.5 -30.5t-29.5 -84.5 v-344h458v-229h-688z" />
<glyph unicode="3" d="M57 328v131h230v-115q0 -54 29.5 -84.5t84.5 -30.5t85 30.5t30 84.5v344q0 54 -30 84.5t-85 30.5h-114v229h114q57 0 86 31t29 84v344q0 54 -30 84.5t-85 30.5t-84.5 -30.5t-29.5 -84.5v-115h-230v131q0 161 88 244.5t222 83.5h69q134 0 221.5 -83.5t87.5 -244.5v-360 q0 -173 -116 -229q116 -58 116 -230v-360q0 -161 -87.5 -244.5t-221.5 -83.5h-69q-134 0 -222 83.5t-88 244.5z" />
<glyph unicode="4" horiz-adv-x="860" d="M29 459l344 1376h344v-1147h114v-229h-114v-459h-230v459h-458zM315 688h172v688z" />
<glyph unicode="5" horiz-adv-x="774" d="M57 328v131h230v-115q0 -54 29.5 -84.5t84.5 -30.5t85 30.5t30 84.5v459q0 54 -30 84.5t-85 30.5t-84.5 -30.5t-29.5 -84.5v-115h-230v1147h688v-229h-458v-486q52 27 114 27h35q134 0 221.5 -83.5t87.5 -244.5v-491q0 -161 -87.5 -244.5t-221.5 -83.5h-69 q-134 0 -222 83.5t-88 244.5z" />
<glyph unicode="6" d="M57 328v1179q0 161 88 244.5t222 83.5h69q134 0 221.5 -83.5t87.5 -244.5v-131h-229v115q0 54 -30 84.5t-85 30.5t-84.5 -30.5t-29.5 -84.5v-371q52 27 114 27h35q134 0 221.5 -83.5t87.5 -244.5v-491q0 -161 -87.5 -244.5t-221.5 -83.5h-69q-134 0 -222 83.5t-88 244.5z M287 344q0 -54 29.5 -84.5t84.5 -30.5t85 30.5t30 84.5v459q0 54 -30 84.5t-85 30.5t-84.5 -30.5t-29.5 -84.5v-459z" />
<glyph unicode="7" horiz-adv-x="745" d="M29 0l401 1606h-401v229h688l-459 -1835h-229z" />
<glyph unicode="8" d="M57 328v360q0 173 117 230q-117 58 -117 229v360q0 161 88 244.5t222 83.5h69q134 0 221.5 -83.5t87.5 -244.5v-360q0 -173 -116 -229q116 -58 116 -230v-360q0 -161 -87.5 -244.5t-221.5 -83.5h-69q-134 0 -222 83.5t-88 244.5zM287 344q0 -54 29.5 -84.5t84.5 -30.5 t85 30.5t30 84.5v344q0 54 -30 84.5t-85 30.5q-57 0 -85.5 -31t-28.5 -84v-344zM287 1147q0 -54 29.5 -84.5t84.5 -30.5q57 0 86 31t29 84v344q0 54 -30 84.5t-85 30.5t-84.5 -30.5t-29.5 -84.5v-344z" />
<glyph unicode="9" d="M57 328v131h230v-115q0 -54 29.5 -84.5t84.5 -30.5t85 30.5t30 84.5v371q-52 -27 -115 -27h-34q-134 0 -222 83.5t-88 244.5v491q0 161 88 244.5t222 83.5h69q134 0 221.5 -83.5t87.5 -244.5v-1179q0 -161 -87.5 -244.5t-221.5 -83.5h-69q-134 0 -222 83.5t-88 244.5z M287 1032q0 -54 29.5 -84t84.5 -30t85 30t30 84v459q0 54 -30 84.5t-85 30.5t-84.5 -30.5t-29.5 -84.5v-459z" />
<glyph unicode=":" horiz-adv-x="344" d="M57 0v229h230v-229h-230zM57 803v229h230v-229h-230z" />
<glyph unicode=";" horiz-adv-x="344" d="M29 -229l57 458h229l-57 -458h-229zM57 803v229h230v-229h-230z" />
<glyph unicode="&#x3c;" horiz-adv-x="516" d="M29 918l229 917h229l-229 -917l229 -918h-229z" />
<glyph unicode="=" horiz-adv-x="1032" d="M57 573v230h918v-230h-918zM57 1032v230h918v-230h-918z" />
<glyph unicode="&#x3e;" horiz-adv-x="516" d="M29 0l229 918l-229 917h229l229 -917l-229 -918h-229z" />
<glyph unicode="?" d="M57 1376v131q0 161 88 244.5t222 83.5h69q134 0 221.5 -83.5t87.5 -244.5v-491q0 -161 -87.5 -244.5t-221.5 -83.5h-35v-229h-229v459h229q55 0 85 30t30 84v459q0 54 -30 84.5t-85 30.5t-84.5 -30.5t-29.5 -84.5v-115h-230zM172 0v229h229v-229h-229z" />
<glyph unicode="@" horiz-adv-x="1146" d="M57 328v1179q0 161 88 244.5t222 83.5h413q134 0 222 -83.5t88 -244.5v-721q0 -108 -43 -183.5t-111.5 -109.5t-155.5 -34h-69q-87 0 -155.5 34t-111.5 109.5t-43 183.5v263q0 108 43 183.5t111.5 109.5t155.5 34h149v115q0 54 -30 84.5t-85 30.5h-344q-55 0 -84.5 -30.5 t-29.5 -84.5v-1147q0 -54 29.5 -84.5t84.5 -30.5h689v-229h-723q-134 0 -222 83.5t-88 244.5zM631 803q0 -54 29.5 -84.5t84.5 -30.5t85 30.5t30 84.5v344h-115q-55 0 -84.5 -30.5t-29.5 -84.5v-229z" />
<glyph unicode="A" d="M57 0v1507q0 161 88 244.5t222 83.5h69q134 0 221.5 -83.5t87.5 -244.5v-1507h-229v459h-229v-459h-230zM287 688h229v803q0 54 -30 84.5t-85 30.5t-84.5 -30.5t-29.5 -84.5v-803z" />
<glyph unicode="B" d="M57 0v1835h379q134 0 221.5 -83.5t87.5 -244.5v-360q0 -173 -116 -229q116 -58 116 -230v-360q0 -161 -87.5 -244.5t-221.5 -83.5h-379zM287 229h114q55 0 85 30.5t30 84.5v344q0 54 -30 84.5t-85 30.5h-114v-574zM287 1032h114q57 0 86 31t29 84v344q0 54 -30 84.5 t-85 30.5h-114v-574z" />
<glyph unicode="C" horiz-adv-x="774" d="M57 328v1179q0 161 88 244.5t222 83.5h69q134 0 221.5 -83.5t87.5 -244.5v-131h-229v115q0 54 -30 84.5t-85 30.5t-84.5 -30.5t-29.5 -84.5v-1147q0 -54 29.5 -84.5t84.5 -30.5t85 30.5t30 84.5v115h229v-131q0 -161 -87.5 -244.5t-221.5 -83.5h-69q-134 0 -222 83.5 t-88 244.5z" />
<glyph unicode="D" d="M57 0v1835h379q134 0 221.5 -83.5t87.5 -244.5v-1179q0 -161 -87.5 -244.5t-221.5 -83.5h-379zM287 229h114q55 0 85 30.5t30 84.5v1147q0 54 -30 84.5t-85 30.5h-114v-1377z" />
<glyph unicode="E" horiz-adv-x="659" d="M57 0v1835h574v-229h-344v-574h229v-229h-229v-574h344v-229h-574z" />
<glyph unicode="F" horiz-adv-x="659" d="M57 0v1835h574v-229h-344v-574h229v-229h-229v-803h-230z" />
<glyph unicode="G" d="M57 328v1179q0 161 88 244.5t222 83.5h69q134 0 221.5 -83.5t87.5 -244.5v-131h-229v115q0 54 -30 84.5t-85 30.5t-84.5 -30.5t-29.5 -84.5v-1147q0 -54 29.5 -84.5t84.5 -30.5t85 30.5t30 84.5v344h-115v230h344v-590q0 -161 -87.5 -244.5t-221.5 -83.5h-69 q-134 0 -222 83.5t-88 244.5z" />
<glyph unicode="H" d="M57 0v1835h230v-803h229v803h229v-1835h-229v803h-229v-803h-230z" />
<glyph unicode="I" horiz-adv-x="344" d="M57 0v1835h230v-1835h-230z" />
<glyph unicode="J" horiz-adv-x="430" d="M29 0v229q55 0 84.5 30.5t29.5 84.5v1491h230v-1507q0 -161 -88 -244.5t-222 -83.5h-34z" />
<glyph unicode="K" d="M57 0v1835h230v-803h114q57 0 86 31t29 84v688h229v-688q0 -173 -116 -229q116 -58 116 -230v-688h-229v688q0 54 -30 84.5t-85 30.5h-114v-803h-230z" />
<glyph unicode="L" horiz-adv-x="659" d="M57 0v1835h230v-1606h344v-229h-574z" />
<glyph unicode="M" horiz-adv-x="1261" d="M57 0v1835h230v-27q52 27 114 27q145 0 230 -78q43 37 95 57.5t134 20.5h35q134 0 221.5 -83.5t87.5 -244.5v-1507h-229v1491q0 54 -30 84.5t-85 30.5t-85 -30.5t-30 -84.5v-1491h-229v1491q0 54 -30 84.5t-85 30.5t-84.5 -30.5t-29.5 -84.5v-1491h-230z" />
<glyph unicode="N" d="M57 0v1835h230v-27q52 27 114 27h35q134 0 221.5 -83.5t87.5 -244.5v-1507h-229v1491q0 54 -30 84.5t-85 30.5t-84.5 -30.5t-29.5 -84.5v-1491h-230z" />
<glyph unicode="O" d="M57 328v1179q0 161 88 244.5t222 83.5h69q134 0 221.5 -83.5t87.5 -244.5v-1179q0 -161 -87.5 -244.5t-221.5 -83.5h-69q-134 0 -222 83.5t-88 244.5zM287 344q0 -54 29.5 -84.5t84.5 -30.5t85 30.5t30 84.5v1147q0 54 -30 84.5t-85 30.5t-84.5 -30.5t-29.5 -84.5v-1147z " />
<glyph unicode="P" horiz-adv-x="774" d="M57 0v1835h379q134 0 221.5 -83.5t87.5 -244.5v-491q0 -161 -87.5 -244.5t-221.5 -83.5h-149v-688h-230zM287 918h114q55 0 85 30t30 84v459q0 54 -30 84.5t-85 30.5h-114v-688z" />
<glyph unicode="Q" horiz-adv-x="860" d="M57 328v1179q0 161 88 244.5t222 83.5h69q134 0 221.5 -83.5t87.5 -244.5v-1163q0 -54 30 -84.5t85 -30.5v-229q-83 0 -135.5 20t-93.5 58q-89 -78 -230 -78h-34q-134 0 -222 83.5t-88 244.5zM287 344q0 -54 29.5 -84.5t84.5 -30.5t85 30.5t30 84.5v1147q0 54 -30 84.5 t-85 30.5t-84.5 -30.5t-29.5 -84.5v-1147z" />
<glyph unicode="R" d="M57 0v1835h379q134 0 221.5 -83.5t87.5 -244.5v-360q0 -173 -116 -229q116 -58 116 -230v-688h-229v688q0 54 -30 84.5t-85 30.5h-114v-803h-230zM287 1032h114q57 0 86 31t29 84v344q0 54 -30 84.5t-85 30.5h-114v-574z" />
<glyph unicode="S" d="M57 328v131h230v-115q0 -54 29.5 -84.5t84.5 -30.5t85 30.5t30 84.5v344q0 54 -30 84.5t-85 30.5h-34q-87 0 -155.5 34t-111.5 109.5t-43 183.5v377q0 161 88 244.5t222 83.5h69q134 0 221.5 -83.5t87.5 -244.5v-131h-229v115q0 54 -30 84.5t-85 30.5t-84.5 -30.5 t-29.5 -84.5v-344q0 -54 29.5 -84.5t84.5 -30.5h35q64 0 119 -20t98 -59t67.5 -102.5t24.5 -145.5v-377q0 -161 -87.5 -244.5t-221.5 -83.5h-69q-134 0 -222 83.5t-88 244.5z" />
<glyph unicode="T" horiz-adv-x="688" d="M0 1606v229h688v-229h-229v-1606h-230v1606h-229z" />
<glyph unicode="U" d="M57 328v1507h230v-1491q0 -54 29.5 -84.5t84.5 -30.5t85 30.5t30 84.5v1491h229v-1507q0 -161 -87.5 -244.5t-221.5 -83.5h-69q-134 0 -222 83.5t-88 244.5z" />
<glyph unicode="V" d="M0 1835h229l172 -1376l172 1376h230l-230 -1835h-344z" />
<glyph unicode="W" horiz-adv-x="1490" d="M0 1835h229l172 -1376l172 1376h345l172 -1376l172 1376h229l-229 -1835h-344l-173 1376l-172 -1376h-344z" />
<glyph unicode="X" horiz-adv-x="745" d="M29 0l229 918l-229 917h229l115 -459l114 459h230l-230 -917l230 -918h-230l-114 459l-115 -459h-229z" />
<glyph unicode="Y" horiz-adv-x="745" d="M29 1835h229l115 -459l114 459h230l-230 -917v-918h-229v918z" />
<glyph unicode="Z" horiz-adv-x="745" d="M29 0l401 1606h-401v229h688l-402 -1606h402v-229h-688z" />
<glyph unicode="[" horiz-adv-x="544" d="M57 0v1835h459v-229h-229v-1377h229v-229h-459z" />
<glyph unicode="\" horiz-adv-x="516" d="M29 1835h229l229 -1835h-229z" />
<glyph unicode="]" horiz-adv-x="544" d="M29 0v229h229v1377h-229v229h458v-1835h-458z" />
<glyph unicode="^" horiz-adv-x="745" d="M29 918l229 917h229l230 -917h-230l-114 458l-115 -458h-229z" />
<glyph unicode="_" horiz-adv-x="1032" d="M57 0v229h918v-229h-918z" />
<glyph unicode="`" horiz-adv-x="286" d="M0 2122h229l58 -230h-230z" />
<glyph unicode="a" d="M57 0v1507q0 161 88 244.5t222 83.5h69q134 0 221.5 -83.5t87.5 -244.5v-1507h-229v459h-229v-459h-230zM287 688h229v803q0 54 -30 84.5t-85 30.5t-84.5 -30.5t-29.5 -84.5v-803z" />
<glyph unicode="b" d="M57 0v1835h379q134 0 221.5 -83.5t87.5 -244.5v-360q0 -173 -116 -229q116 -58 116 -230v-360q0 -161 -87.5 -244.5t-221.5 -83.5h-379zM287 229h114q55 0 85 30.5t30 84.5v344q0 54 -30 84.5t-85 30.5h-114v-574zM287 1032h114q57 0 86 31t29 84v344q0 54 -30 84.5 t-85 30.5h-114v-574z" />
<glyph unicode="c" horiz-adv-x="774" d="M57 328v1179q0 161 88 244.5t222 83.5h69q134 0 221.5 -83.5t87.5 -244.5v-131h-229v115q0 54 -30 84.5t-85 30.5t-84.5 -30.5t-29.5 -84.5v-1147q0 -54 29.5 -84.5t84.5 -30.5t85 30.5t30 84.5v115h229v-131q0 -161 -87.5 -244.5t-221.5 -83.5h-69q-134 0 -222 83.5 t-88 244.5z" />
<glyph unicode="d" d="M57 0v1835h379q134 0 221.5 -83.5t87.5 -244.5v-1179q0 -161 -87.5 -244.5t-221.5 -83.5h-379zM287 229h114q55 0 85 30.5t30 84.5v1147q0 54 -30 84.5t-85 30.5h-114v-1377z" />
<glyph unicode="e" horiz-adv-x="659" d="M57 0v1835h574v-229h-344v-574h229v-229h-229v-574h344v-229h-574z" />
<glyph unicode="f" horiz-adv-x="659" d="M57 0v1835h574v-229h-344v-574h229v-229h-229v-803h-230z" />
<glyph unicode="g" d="M57 328v1179q0 161 88 244.5t222 83.5h69q134 0 221.5 -83.5t87.5 -244.5v-131h-229v115q0 54 -30 84.5t-85 30.5t-84.5 -30.5t-29.5 -84.5v-1147q0 -54 29.5 -84.5t84.5 -30.5t85 30.5t30 84.5v344h-115v230h344v-590q0 -161 -87.5 -244.5t-221.5 -83.5h-69 q-134 0 -222 83.5t-88 244.5z" />
<glyph unicode="h" d="M57 0v1835h230v-803h229v803h229v-1835h-229v803h-229v-803h-230z" />
<glyph unicode="i" horiz-adv-x="344" d="M57 0v1835h230v-1835h-230z" />
<glyph unicode="j" horiz-adv-x="430" d="M29 0v229q55 0 84.5 30.5t29.5 84.5v1491h230v-1507q0 -161 -88 -244.5t-222 -83.5h-34z" />
<glyph unicode="k" d="M57 0v1835h230v-803h114q57 0 86 31t29 84v688h229v-688q0 -173 -116 -229q116 -58 116 -230v-688h-229v688q0 54 -30 84.5t-85 30.5h-114v-803h-230z" />
<glyph unicode="l" horiz-adv-x="659" d="M57 0v1835h230v-1606h344v-229h-574z" />
<glyph unicode="m" horiz-adv-x="1261" d="M57 0v1835h230v-27q52 27 114 27q145 0 230 -78q43 37 95 57.5t134 20.5h35q134 0 221.5 -83.5t87.5 -244.5v-1507h-229v1491q0 54 -30 84.5t-85 30.5t-85 -30.5t-30 -84.5v-1491h-229v1491q0 54 -30 84.5t-85 30.5t-84.5 -30.5t-29.5 -84.5v-1491h-230z" />
<glyph unicode="n" d="M57 0v1835h230v-27q52 27 114 27h35q134 0 221.5 -83.5t87.5 -244.5v-1507h-229v1491q0 54 -30 84.5t-85 30.5t-84.5 -30.5t-29.5 -84.5v-1491h-230z" />
<glyph unicode="o" d="M57 328v1179q0 161 88 244.5t222 83.5h69q134 0 221.5 -83.5t87.5 -244.5v-1179q0 -161 -87.5 -244.5t-221.5 -83.5h-69q-134 0 -222 83.5t-88 244.5zM287 344q0 -54 29.5 -84.5t84.5 -30.5t85 30.5t30 84.5v1147q0 54 -30 84.5t-85 30.5t-84.5 -30.5t-29.5 -84.5v-1147z " />
<glyph unicode="p" horiz-adv-x="774" d="M57 0v1835h379q134 0 221.5 -83.5t87.5 -244.5v-491q0 -161 -87.5 -244.5t-221.5 -83.5h-149v-688h-230zM287 918h114q55 0 85 30t30 84v459q0 54 -30 84.5t-85 30.5h-114v-688z" />
<glyph unicode="q" horiz-adv-x="860" d="M57 328v1179q0 161 88 244.5t222 83.5h69q134 0 221.5 -83.5t87.5 -244.5v-1163q0 -54 30 -84.5t85 -30.5v-229q-83 0 -135.5 20t-93.5 58q-89 -78 -230 -78h-34q-134 0 -222 83.5t-88 244.5zM287 344q0 -54 29.5 -84.5t84.5 -30.5t85 30.5t30 84.5v1147q0 54 -30 84.5 t-85 30.5t-84.5 -30.5t-29.5 -84.5v-1147z" />
<glyph unicode="r" d="M57 0v1835h379q134 0 221.5 -83.5t87.5 -244.5v-360q0 -173 -116 -229q116 -58 116 -230v-688h-229v688q0 54 -30 84.5t-85 30.5h-114v-803h-230zM287 1032h114q57 0 86 31t29 84v344q0 54 -30 84.5t-85 30.5h-114v-574z" />
<glyph unicode="s" horiz-adv-x="745" d="M29 328v131h229v-115q0 -54 30 -84.5t85 -30.5t84.5 30.5t29.5 84.5v344q0 54 -29.5 84.5t-84.5 30.5h-35q-64 0 -119 20t-98 59t-67.5 102.5t-24.5 145.5v377q0 161 87.5 244.5t221.5 83.5h70q134 0 221.5 -83.5t87.5 -244.5v-131h-230v115q0 54 -29.5 84.5t-84.5 30.5 t-85 -30.5t-30 -84.5v-344q0 -54 30 -84.5t85 -30.5h35q64 0 119 -20t98 -59t67.5 -102.5t24.5 -145.5v-377q0 -161 -87.5 -244.5t-221.5 -83.5h-70q-134 0 -221.5 83.5t-87.5 244.5z" />
<glyph unicode="t" horiz-adv-x="688" d="M0 1606v229h688v-229h-229v-1606h-230v1606h-229z" />
<glyph unicode="u" d="M57 328v1507h230v-1491q0 -54 29.5 -84.5t84.5 -30.5t85 30.5t30 84.5v1491h229v-1507q0 -161 -87.5 -244.5t-221.5 -83.5h-69q-134 0 -222 83.5t-88 244.5z" />
<glyph unicode="v" d="M0 1835h229l172 -1376l172 1376h230l-230 -1835h-344z" />
<glyph unicode="w" horiz-adv-x="1490" d="M0 1835h229l172 -1376l172 1376h345l172 -1376l172 1376h229l-229 -1835h-344l-173 1376l-172 -1376h-344z" />
<glyph unicode="x" horiz-adv-x="745" d="M29 0l229 918l-229 917h229l115 -459l114 459h230l-230 -917l230 -918h-230l-114 459l-115 -459h-229z" />
<glyph unicode="y" horiz-adv-x="745" d="M29 1835h229l115 -459l114 459h230l-230 -917v-918h-229v918z" />
<glyph unicode="z" horiz-adv-x="745" d="M29 0l401 1606h-401v229h688l-402 -1606h402v-229h-688z" />
<glyph unicode="{" horiz-adv-x="630" d="M29 803v229q57 0 85.5 31t28.5 84v360q0 161 88 244.5t222 83.5h149v-229h-115q-55 0 -84.5 -30.5t-29.5 -84.5v-344q0 -172 -117 -229q117 -58 117 -230v-344q0 -54 29.5 -84.5t84.5 -30.5h115v-229h-149q-134 0 -222 83.5t-88 244.5v360q0 54 -29.5 84.5t-84.5 30.5z " />
<glyph unicode="|" horiz-adv-x="344" d="M57 0v1835h230v-1835h-230z" />
<glyph unicode="}" horiz-adv-x="630" d="M29 0v229h114q55 0 85 30.5t30 84.5v344q0 173 117 230q-117 58 -117 229v344q0 54 -30 84.5t-85 30.5h-114v229h149q134 0 221.5 -83.5t87.5 -244.5v-360q0 -54 30 -84.5t85 -30.5v-229q-57 0 -86 -31t-29 -84v-360q0 -161 -87.5 -244.5t-221.5 -83.5h-149z" />
<glyph unicode="~" horiz-adv-x="1032" d="M57 686v131q0 161 88 244.5t222 83.5h149v-230h115q55 0 84.5 30.5t29.5 84.5v115h230v-131q0 -161 -87.5 -244.5t-221.5 -83.5h-150v229h-115q-55 0 -84.5 -30t-29.5 -84v-115h-230z" />
<glyph unicode="&#xa1;" horiz-adv-x="344" d="M57 0v1376h230v-1376h-230zM57 1606v229h230v-229h-230z" />
<glyph unicode="&#xa2;" horiz-adv-x="774" d="M57 328v1179q0 161 88 244.5t222 83.5h69q134 0 221.5 -83.5t87.5 -244.5v-131h-229v115q0 54 -30 84.5t-85 30.5t-84.5 -30.5t-29.5 -84.5v-1147q0 -54 29.5 -84.5t84.5 -30.5t85 30.5t30 84.5v115h229v-131q0 -161 -87.5 -244.5t-221.5 -83.5h-69q-134 0 -222 83.5 t-88 244.5zM244 -287l28 230h230l-29 -230h-229zM285 1892l57 230h229l-57 -230h-229z" />
<glyph unicode="&#xa3;" horiz-adv-x="860" d="M29 803v229h114v475q0 161 88 244.5t222 83.5h69q134 0 221.5 -83.5t87.5 -244.5v-131h-229v115q0 54 -30 84.5t-85 30.5t-84.5 -30.5t-29.5 -84.5v-459h229v-229h-229v-574h458v-229h-688v803h-114z" />
<glyph unicode="&#xa4;" horiz-adv-x="2048" d="M246 125v1307l127 124h1304l125 -126v-1305l-125 -125h-1306zM274 137l84 -84v1276h1188v86h-1272v-1278zM299 1444h1276v-1188h86v1272h-1276zM387 29h1274l88 84h-1276v1187h-86v-1271zM498 141h1276v1276l-84 86v-1276h-1192v-86zM502 256h1044v1044h-1044v-1044z M707 360v828h104v-12q24 12 51 12h15q60 0 99.5 -38t39.5 -110v-680h-103v672q0 51 -51 51t-51 -51v-672h-104zM1069 360v828h170q60 0 99.5 -38t39.5 -110v-221q0 -73 -39 -110t-100 -37h-68v-312h-102zM1171 774h52q51 0 51 51v207q0 51 -51 51h-52v-309z" />
<glyph unicode="&#xa5;" horiz-adv-x="745" d="M29 1835h229l115 -459l114 459h230l-230 -917v-230h115v-229h-115v-459h-229v459h-115v229h115v230z" />
<glyph unicode="&#xa6;" horiz-adv-x="344" d="M57 0v688h230v-688h-230zM57 1147v688h230v-688h-230z" />
<glyph unicode="&#xa7;" d="M57 328v131h230v-115q0 -54 29.5 -84.5t84.5 -30.5t85 30.5t30 84.5v229h-149q-134 0 -222 83.5t-88 244.5v606q0 161 88 244.5t222 83.5h69q134 0 221.5 -83.5t87.5 -244.5v-131h-229v115q0 54 -30 84.5t-85 30.5t-84.5 -30.5t-29.5 -84.5v-229h149q134 0 221.5 -83.5 t87.5 -244.5v-606q0 -161 -87.5 -244.5t-221.5 -83.5h-69q-134 0 -222 83.5t-88 244.5zM287 918q0 -54 29.5 -84.5t84.5 -30.5h115v115q0 54 -30 84t-85 30h-114v-114z" />
<glyph unicode="&#xa8;" d="M57 1892v230h230v-230h-230zM516 1892v230h229v-230h-229z" />
<glyph unicode="&#xa9;" horiz-adv-x="1376" d="M57 328v1179q0 161 88 244.5t222 83.5h643q134 0 221.5 -83.5t87.5 -244.5v-1179q0 -161 -87.5 -244.5t-221.5 -83.5h-643q-134 0 -222 83.5t-88 244.5zM287 344q0 -54 29.5 -84.5t84.5 -30.5h574q55 0 85 30.5t30 84.5v1147q0 54 -30 84.5t-85 30.5h-574 q-55 0 -84.5 -30.5t-29.5 -84.5v-1147zM401 672v491q0 161 88 244.5t222 83.5h264v-229h-230q-55 0 -84.5 -30.5t-29.5 -84.5v-459q0 -54 29.5 -84.5t84.5 -30.5h230v-229h-264q-134 0 -222 83.5t-88 244.5z" />
<glyph unicode="&#xaa;" d="M57 803v704q0 161 88 244.5t222 83.5h69q134 0 221.5 -83.5t87.5 -244.5v-704h-229v344h-229v-344h-230zM287 1376h229v115q0 54 -30 84.5t-85 30.5t-84.5 -30.5t-29.5 -84.5v-115z" />
<glyph unicode="&#xab;" d="M57 918l115 458h229l-114 -458l114 -459h-229zM401 918l115 458h229l-114 -458l114 -459h-229z" />
<glyph unicode="&#xac;" horiz-adv-x="1032" d="M57 803v229h918v-688h-230v459h-688z" />
<glyph unicode="&#xad;" horiz-adv-x="458" d="M57 803v229h344v-229h-344z" />
<glyph unicode="&#xae;" horiz-adv-x="1376" d="M57 328v1179q0 161 88 244.5t222 83.5h643q134 0 221.5 -83.5t87.5 -244.5v-1179q0 -161 -87.5 -244.5t-221.5 -83.5h-643q-134 0 -222 83.5t-88 244.5zM287 344q0 -54 29.5 -84.5t84.5 -30.5h574q55 0 85 30.5t30 84.5v1147q0 54 -30 84.5t-85 30.5h-574 q-55 0 -84.5 -30.5t-29.5 -84.5v-1147zM401 344v1147h265q134 0 221.5 -83.5t87.5 -244.5v-131q0 -172 -117 -229q117 -59 117 -230v-229h-230v229q0 54 -29.5 84.5t-84.5 30.5v-344h-230zM631 918q57 0 85.5 30.5t28.5 83.5v115q0 54 -29.5 84.5t-84.5 30.5v-344z" />
<glyph unicode="&#xaf;" horiz-adv-x="573" d="M57 1892v230h459v-230h-459z" />
<glyph unicode="&#xb0;" d="M57 1245v262q0 161 88 244.5t222 83.5h69q134 0 221.5 -83.5t87.5 -244.5v-262q0 -82 -24.5 -145.5t-67.5 -102.5t-98 -59t-119 -20h-69q-87 0 -155.5 34t-111.5 109.5t-43 183.5zM287 1262q0 -54 29.5 -84.5t84.5 -30.5t85 30.5t30 84.5v229q0 54 -30 84.5t-85 30.5 t-84.5 -30.5t-29.5 -84.5v-229z" />
<glyph unicode="&#xb1;" horiz-adv-x="1032" d="M57 573v230h344v229h-344v230h344v344h230v-344h344v-230h-344v-229h344v-230h-918z" />
<glyph unicode="&#xb2;" d="M57 459v360q0 161 88 244.5t222 83.5h34q55 0 85 30.5t30 84.5v229q0 54 -30 84.5t-85 30.5t-84.5 -30.5t-29.5 -84.5v-115h-230v131q0 161 88 244.5t222 83.5h69q134 0 221.5 -83.5t87.5 -244.5v-262q0 -82 -24.5 -145.5t-67.5 -102.5t-98 -59t-119 -20h-35 q-55 0 -84.5 -30.5t-29.5 -84.5v-115h458v-229h-688z" />
<glyph unicode="&#xb3;" d="M57 786v132h230v-115q0 -54 29.5 -84.5t84.5 -30.5t85 30.5t30 84.5v115q0 54 -30 84t-85 30v230q57 0 86 30.5t29 83.5v115q0 54 -30 84.5t-85 30.5t-84.5 -30.5t-29.5 -84.5v-115h-230v131q0 161 88 244.5t222 83.5h69q134 0 221.5 -83.5t87.5 -244.5v-131 q0 -173 -116 -229q116 -58 116 -229v-132q0 -82 -24.5 -145.5t-67.5 -102.5t-98 -59t-119 -20h-69q-87 0 -155.5 34t-111.5 109.5t-43 183.5z" />
<glyph unicode="&#xb4;" horiz-adv-x="286" d="M0 1892l57 230h230l-58 -230h-229z" />
<glyph unicode="&#xb5;" horiz-adv-x="1261" d="M57 0v1835h230v-27q52 27 114 27q145 0 230 -78q43 37 95 57.5t134 20.5h35q134 0 221.5 -83.5t87.5 -244.5v-1507h-229v1491q0 54 -30 84.5t-85 30.5t-85 -30.5t-30 -84.5v-1491h-229v1491q0 54 -30 84.5t-85 30.5t-84.5 -30.5t-29.5 -84.5v-1491h-230z" />
<glyph unicode="&#xb6;" horiz-adv-x="1003" d="M29 1016v491q0 161 87.5 244.5t221.5 83.5h608v-1835h-229v1606h-115v-1606h-229v688h-35q-134 0 -221.5 83.5t-87.5 244.5zM258 1032q0 -54 30 -84t85 -30v688q-55 0 -85 -30.5t-30 -84.5v-459z" />
<glyph unicode="&#xb7;" horiz-adv-x="344" d="M57 803v229h230v-229h-230z" />
<glyph unicode="&#xb8;" horiz-adv-x="315" d="M29 -287l28 230h230l-29 -230h-229z" />
<glyph unicode="&#xb9;" horiz-adv-x="430" d="M29 1376v230q55 0 84.5 30t29.5 84v115h230v-1376h-230v944q-52 -27 -114 -27z" />
<glyph unicode="&#xba;" d="M57 1130v377q0 161 88 244.5t222 83.5h69q134 0 221.5 -83.5t87.5 -244.5v-377q0 -82 -24.5 -145.5t-67.5 -102.5t-98 -59t-119 -20h-69q-87 0 -155.5 34t-111.5 109.5t-43 183.5zM287 1147q0 -54 29.5 -84.5t84.5 -30.5t85 30.5t30 84.5v344q0 54 -30 84.5t-85 30.5 t-84.5 -30.5t-29.5 -84.5v-344z" />
<glyph unicode="&#xbb;" d="M57 459l115 459l-115 458h230l114 -458l-114 -459h-230zM401 459l115 459l-115 458h230l114 -458l-114 -459h-230z" />
<glyph unicode="&#xbc;" horiz-adv-x="1720" d="M57 1376v230q55 0 85 30t30 84v115h229v-1376h-229v944q-52 -27 -115 -27zM516 0l229 1835h230l-230 -1835h-229zM975 459l229 917h344v-688h115v-229h-115v-459h-229v459h-344zM1262 688h57v230z" />
<glyph unicode="&#xbd;" horiz-adv-x="1806" d="M57 1376v230q55 0 85 30t30 84v115h229v-1376h-229v944q-52 -27 -115 -27zM516 0l229 1835h230l-230 -1835h-229zM1061 0v360q0 161 87.5 244.5t221.5 83.5h35q55 0 85 30.5t30 84.5v229q0 54 -30 84.5t-85 30.5t-85 -30.5t-30 -84.5v-114h-229v131q0 82 24.5 145.5 t67.5 102.5t98 59t119 20h70q64 0 119 -20t98 -59t67.5 -102.5t24.5 -145.5v-263q0 -82 -24.5 -145.5t-67.5 -102.5t-98 -59t-119 -20h-35q-55 0 -85 -30.5t-30 -84.5v-115h459v-229h-688z" />
<glyph unicode="&#xbe;" horiz-adv-x="2064" d="M57 786v132h230v-115q0 -54 29.5 -84.5t84.5 -30.5t85 30.5t30 84.5v115q0 54 -30 84t-85 30v230q57 0 86 30.5t29 83.5v115q0 54 -30 84.5t-85 30.5t-84.5 -30.5t-29.5 -84.5v-115h-230v131q0 161 88 244.5t222 83.5h69q134 0 221.5 -83.5t87.5 -244.5v-131 q0 -173 -116 -229q116 -58 116 -229v-132q0 -82 -24.5 -145.5t-67.5 -102.5t-98 -59t-119 -20h-69q-87 0 -155.5 34t-111.5 109.5t-43 183.5zM860 0l230 1835h229l-229 -1835h-230zM1319 459l229 917h344v-688h115v-229h-115v-459h-229v459h-344zM1606 688h57v230z" />
<glyph unicode="&#xbf;" d="M57 328v491q0 161 88 244.5t222 83.5h34v229h230v-458h-230q-55 0 -84.5 -30.5t-29.5 -84.5v-459q0 -54 29.5 -84.5t84.5 -30.5t85 30.5t30 84.5v115h229v-131q0 -161 -87.5 -244.5t-221.5 -83.5h-69q-134 0 -222 83.5t-88 244.5zM401 1606v229h230v-229h-230z" />
<glyph unicode="&#xc0;" d="M57 0v1507q0 161 88 244.5t222 83.5h69q134 0 221.5 -83.5t87.5 -244.5v-1507h-229v459h-229v-459h-230zM229 2122h230l57 -230h-229zM287 688h229v803q0 54 -30 84.5t-85 30.5t-84.5 -30.5t-29.5 -84.5v-803z" />
<glyph unicode="&#xc1;" d="M57 0v1507q0 161 88 244.5t222 83.5h69q134 0 221.5 -83.5t87.5 -244.5v-1507h-229v459h-229v-459h-230zM285 1892l57 230h229l-57 -230h-229zM287 688h229v803q0 54 -30 84.5t-85 30.5t-84.5 -30.5t-29.5 -84.5v-803z" />
<glyph unicode="&#xc2;" d="M57 0v1507q0 161 88 244.5t222 83.5h69q134 0 221.5 -83.5t87.5 -244.5v-1507h-229v459h-229v-459h-230zM115 1892l57 230h229l-57 -230h-229zM287 688h229v803q0 54 -30 84.5t-85 30.5t-84.5 -30.5t-29.5 -84.5v-803zM401 2122h230l57 -230h-229z" />
<glyph unicode="&#xc3;" d="M57 0v1278q0 161 88 244.5t222 83.5h69q134 0 221.5 -83.5t87.5 -244.5v-1278h-229v459h-229v-459h-230zM57 1663v131q0 161 88 244.5t222 83.5h34v-230q55 0 85 30.5t30 84.5v115h229v-131q0 -161 -87.5 -244.5t-221.5 -83.5h-35v229q-55 0 -84.5 -30t-29.5 -84v-115 h-230zM287 688h229v574q0 54 -30 84t-85 30t-84.5 -30t-29.5 -84v-574z" />
<glyph unicode="&#xc4;" d="M57 0v1507q0 161 88 244.5t222 83.5h69q134 0 221.5 -83.5t87.5 -244.5v-1507h-229v459h-229v-459h-230zM57 1892v230h230v-230h-230zM287 688h229v803q0 54 -30 84.5t-85 30.5t-84.5 -30.5t-29.5 -84.5v-803zM516 1892v230h229v-230h-229z" />
<glyph unicode="&#xc5;" d="M57 0v819q0 161 88 244.5t222 83.5h69q134 0 221.5 -83.5t87.5 -244.5v-819h-229v229h-229v-229h-230zM57 1532v262q0 161 88 244.5t222 83.5h69q134 0 221.5 -83.5t87.5 -244.5v-262q0 -161 -87.5 -244.5t-221.5 -83.5h-69q-134 0 -222 83.5t-88 244.5zM287 459h229v344 q0 54 -30 84.5t-85 30.5t-84.5 -30.5t-29.5 -84.5v-344zM287 1548q0 -54 29.5 -84t84.5 -30t85 30t30 84v230q0 54 -30 84t-85 30t-84.5 -30t-29.5 -84v-230z" />
<glyph unicode="&#xc6;" horiz-adv-x="1118" d="M57 0v1507q0 161 88 244.5t222 83.5h34q63 0 115 -27v27h574v-229h-345v-574h230v-229h-230v-574h345v-229h-574v459h-229v-459h-230zM287 688h229v803q0 54 -30 84.5t-85 30.5t-84.5 -30.5t-29.5 -84.5v-803z" />
<glyph unicode="&#xc7;" horiz-adv-x="774" d="M57 328v1179q0 161 88 244.5t222 83.5h69q134 0 221.5 -83.5t87.5 -244.5v-131h-229v115q0 54 -30 84.5t-85 30.5t-84.5 -30.5t-29.5 -84.5v-1147q0 -54 29.5 -84.5t84.5 -30.5t85 30.5t30 84.5v115h229v-131q0 -161 -87.5 -244.5t-221.5 -83.5h-69q-134 0 -222 83.5 t-88 244.5zM272 -287l29 230h229l-28 -230h-230z" />
<glyph unicode="&#xc8;" horiz-adv-x="659" d="M57 0v1835h574v-229h-344v-574h229v-229h-229v-574h344v-229h-574zM201 2122h229l57 -230h-229z" />
<glyph unicode="&#xc9;" horiz-adv-x="659" d="M57 0v1835h574v-229h-344v-574h229v-229h-229v-574h344v-229h-574zM229 1892l58 230h229l-57 -230h-230z" />
<glyph unicode="&#xca;" horiz-adv-x="659" d="M57 0v1835h574v-229h-344v-574h229v-229h-229v-574h344v-229h-574zM57 1892l58 230h229l-57 -230h-230zM344 2122h229l58 -230h-230z" />
<glyph unicode="&#xcb;" horiz-adv-x="659" d="M57 0v1835h574v-229h-344v-574h229v-229h-229v-574h344v-229h-574zM57 1892v230h230v-230h-230zM401 1892v230h230v-230h-230z" />
<glyph unicode="&#xcc;" horiz-adv-x="344" d="M0 2122h229l58 -230h-230zM57 0v1835h230v-1835h-230z" />
<glyph unicode="&#xcd;" horiz-adv-x="344" d="M57 0v1835h230v-1835h-230zM57 1892l58 230h229l-57 -230h-230z" />
<glyph unicode="&#xce;" horiz-adv-x="344" d="M-115 1892l58 230h229l-57 -230h-230zM57 0v1835h230v-1835h-230zM172 2122h229l58 -230h-230z" />
<glyph unicode="&#xcf;" horiz-adv-x="344" d="M-115 1892v230h230v-230h-230zM57 0v1835h230v-1835h-230zM229 1892v230h230v-230h-230z" />
<glyph unicode="&#xd0;" horiz-adv-x="888" d="M29 803v229h114v803h379q134 0 221.5 -83.5t87.5 -244.5v-1179q0 -161 -87.5 -244.5t-221.5 -83.5h-379v803h-114zM373 229h114q55 0 85 30.5t30 84.5v1147q0 54 -30 84.5t-85 30.5h-114v-574h114v-229h-114v-574z" />
<glyph unicode="&#xd1;" d="M57 0v1606h230v-27q52 27 114 27h35q134 0 221.5 -83.5t87.5 -244.5v-1278h-229v1262q0 54 -30 84t-85 30t-84.5 -30t-29.5 -84v-1262h-230zM57 1663v131q0 161 88 244.5t222 83.5h34v-230q55 0 85 30.5t30 84.5v115h229v-131q0 -161 -87.5 -244.5t-221.5 -83.5h-35v229 q-55 0 -84.5 -30t-29.5 -84v-115h-230z" />
<glyph unicode="&#xd2;" d="M57 328v1179q0 161 88 244.5t222 83.5h69q134 0 221.5 -83.5t87.5 -244.5v-1179q0 -161 -87.5 -244.5t-221.5 -83.5h-69q-134 0 -222 83.5t-88 244.5zM229 2122h230l57 -230h-229zM287 344q0 -54 29.5 -84.5t84.5 -30.5t85 30.5t30 84.5v1147q0 54 -30 84.5t-85 30.5 t-84.5 -30.5t-29.5 -84.5v-1147z" />
<glyph unicode="&#xd3;" d="M57 328v1179q0 161 88 244.5t222 83.5h69q134 0 221.5 -83.5t87.5 -244.5v-1179q0 -161 -87.5 -244.5t-221.5 -83.5h-69q-134 0 -222 83.5t-88 244.5zM287 344q0 -54 29.5 -84.5t84.5 -30.5t85 30.5t30 84.5v1147q0 54 -30 84.5t-85 30.5t-84.5 -30.5t-29.5 -84.5v-1147z M287 1892l57 230h229l-57 -230h-229z" />
<glyph unicode="&#xd4;" d="M57 328v1179q0 161 88 244.5t222 83.5h69q134 0 221.5 -83.5t87.5 -244.5v-1179q0 -161 -87.5 -244.5t-221.5 -83.5h-69q-134 0 -222 83.5t-88 244.5zM115 1892l57 230h229l-57 -230h-229zM287 344q0 -54 29.5 -84.5t84.5 -30.5t85 30.5t30 84.5v1147q0 54 -30 84.5 t-85 30.5t-84.5 -30.5t-29.5 -84.5v-1147zM401 2122h230l57 -230h-229z" />
<glyph unicode="&#xd5;" d="M57 328v950q0 161 88 244.5t222 83.5h69q134 0 221.5 -83.5t87.5 -244.5v-950q0 -161 -87.5 -244.5t-221.5 -83.5h-69q-134 0 -222 83.5t-88 244.5zM57 1663v131q0 161 88 244.5t222 83.5h34v-230q55 0 85 30.5t30 84.5v115h229v-131q0 -161 -87.5 -244.5t-221.5 -83.5 h-35v229q-55 0 -84.5 -30t-29.5 -84v-115h-230zM287 344q0 -54 29.5 -84.5t84.5 -30.5t85 30.5t30 84.5v918q0 54 -30 84t-85 30t-84.5 -30t-29.5 -84v-918z" />
<glyph unicode="&#xd6;" d="M57 328v1179q0 161 88 244.5t222 83.5h69q134 0 221.5 -83.5t87.5 -244.5v-1179q0 -161 -87.5 -244.5t-221.5 -83.5h-69q-134 0 -222 83.5t-88 244.5zM57 1892v230h230v-230h-230zM287 344q0 -54 29.5 -84.5t84.5 -30.5t85 30.5t30 84.5v1147q0 54 -30 84.5t-85 30.5 t-84.5 -30.5t-29.5 -84.5v-1147zM516 1892v230h229v-230h-229z" />
<glyph unicode="&#xd7;" d="M57 459l115 459l-115 458h230l114 -458l-114 -459h-230zM401 918l115 458h229l-114 -458l114 -459h-229z" />
<glyph unicode="&#xd8;" horiz-adv-x="974" d="M29 803v229h114v475q0 161 88 244.5t222 83.5h69q134 0 221.5 -83.5t87.5 -244.5v-475h115v-229h-115v-475q0 -161 -87.5 -244.5t-221.5 -83.5h-69q-134 0 -222 83.5t-88 244.5v475h-114zM373 344q0 -54 29.5 -84.5t84.5 -30.5t85 30.5t30 84.5v459h-229v-459zM373 1032 h229v459q0 54 -30 84.5t-85 30.5t-84.5 -30.5t-29.5 -84.5v-459z" />
<glyph unicode="&#xd9;" d="M57 328v1507h230v-1491q0 -54 29.5 -84.5t84.5 -30.5t85 30.5t30 84.5v1491h229v-1507q0 -161 -87.5 -244.5t-221.5 -83.5h-69q-134 0 -222 83.5t-88 244.5zM229 2122h230l57 -230h-229z" />
<glyph unicode="&#xda;" d="M57 328v1507h230v-1491q0 -54 29.5 -84.5t84.5 -30.5t85 30.5t30 84.5v1491h229v-1507q0 -161 -87.5 -244.5t-221.5 -83.5h-69q-134 0 -222 83.5t-88 244.5zM287 1892l57 230h229l-57 -230h-229z" />
<glyph unicode="&#xdb;" d="M57 328v1507h230v-1491q0 -54 29.5 -84.5t84.5 -30.5t85 30.5t30 84.5v1491h229v-1507q0 -161 -87.5 -244.5t-221.5 -83.5h-69q-134 0 -222 83.5t-88 244.5zM115 1892l57 230h229l-57 -230h-229zM401 2122h230l57 -230h-229z" />
<glyph unicode="&#xdc;" d="M57 328v1507h230v-1491q0 -54 29.5 -84.5t84.5 -30.5t85 30.5t30 84.5v1491h229v-1507q0 -161 -87.5 -244.5t-221.5 -83.5h-69q-134 0 -222 83.5t-88 244.5zM57 1892v230h230v-230h-230zM516 1892v230h229v-230h-229z" />
<glyph unicode="&#xdd;" horiz-adv-x="745" d="M29 1835h229l115 -459l114 459h230l-230 -917v-918h-229v918zM256 1892l57 230h230l-58 -230h-229z" />
<glyph unicode="&#xde;" horiz-adv-x="774" d="M57 0v1835h230v-344h149q134 0 221.5 -83.5t87.5 -244.5v-491q0 -161 -87.5 -244.5t-221.5 -83.5h-149v-344h-230zM287 573h114q55 0 85 30.5t30 84.5v459q0 54 -30 84.5t-85 30.5h-114v-689z" />
<glyph unicode="&#xdf;" horiz-adv-x="1576" d="M29 328v131h229v-115q0 -54 30 -84.5t85 -30.5t84.5 30.5t29.5 84.5v344q0 54 -29.5 84.5t-84.5 30.5h-35q-64 0 -119 20t-98 59t-67.5 102.5t-24.5 145.5v377q0 161 87.5 244.5t221.5 83.5h70q134 0 221.5 -83.5t87.5 -244.5v-131h-230v115q0 54 -29.5 84.5t-84.5 30.5 t-85 -30.5t-30 -84.5v-344q0 -54 30 -84.5t85 -30.5h35q64 0 119 -20t98 -59t67.5 -102.5t24.5 -145.5v-377q0 -161 -87.5 -244.5t-221.5 -83.5h-70q-134 0 -221.5 83.5t-87.5 244.5zM831 328v131h230v-115q0 -54 30 -84.5t85 -30.5t84.5 30.5t29.5 84.5v344 q0 54 -29.5 84.5t-84.5 30.5h-35q-87 0 -155.5 34t-111.5 109.5t-43 183.5v377q0 161 88 244.5t222 83.5h69q134 0 222 -83.5t88 -244.5v-131h-230v115q0 54 -29.5 84.5t-84.5 30.5t-85 -30.5t-30 -84.5v-344q0 -54 30 -84.5t85 -30.5h34q87 0 155.5 -34t111.5 -109.5 t43 -183.5v-377q0 -161 -88 -244.5t-222 -83.5h-69q-134 0 -222 83.5t-88 244.5z" />
<glyph unicode="&#xe0;" d="M57 0v1507q0 161 88 244.5t222 83.5h69q134 0 221.5 -83.5t87.5 -244.5v-1507h-229v459h-229v-459h-230zM229 2122h230l57 -230h-229zM287 688h229v803q0 54 -30 84.5t-85 30.5t-84.5 -30.5t-29.5 -84.5v-803z" />
<glyph unicode="&#xe1;" d="M57 0v1507q0 161 88 244.5t222 83.5h69q134 0 221.5 -83.5t87.5 -244.5v-1507h-229v459h-229v-459h-230zM285 1892l57 230h229l-57 -230h-229zM287 688h229v803q0 54 -30 84.5t-85 30.5t-84.5 -30.5t-29.5 -84.5v-803z" />
<glyph unicode="&#xe2;" d="M57 0v1507q0 161 88 244.5t222 83.5h69q134 0 221.5 -83.5t87.5 -244.5v-1507h-229v459h-229v-459h-230zM115 1892l57 230h229l-57 -230h-229zM287 688h229v803q0 54 -30 84.5t-85 30.5t-84.5 -30.5t-29.5 -84.5v-803zM401 2122h230l57 -230h-229z" />
<glyph unicode="&#xe3;" d="M57 0v1278q0 161 88 244.5t222 83.5h69q134 0 221.5 -83.5t87.5 -244.5v-1278h-229v459h-229v-459h-230zM57 1663v131q0 161 88 244.5t222 83.5h34v-230q55 0 85 30.5t30 84.5v115h229v-131q0 -161 -87.5 -244.5t-221.5 -83.5h-35v229q-55 0 -84.5 -30t-29.5 -84v-115 h-230zM287 688h229v574q0 54 -30 84t-85 30t-84.5 -30t-29.5 -84v-574z" />
<glyph unicode="&#xe4;" d="M57 0v1507q0 161 88 244.5t222 83.5h69q134 0 221.5 -83.5t87.5 -244.5v-1507h-229v459h-229v-459h-230zM57 1864v229h230v-229h-230zM287 688h229v803q0 54 -30 84.5t-85 30.5t-84.5 -30.5t-29.5 -84.5v-803zM516 1864v229h229v-229h-229z" />
<glyph unicode="&#xe5;" d="M57 0v819q0 161 88 244.5t222 83.5h69q134 0 221.5 -83.5t87.5 -244.5v-819h-229v229h-229v-229h-230zM57 1532v262q0 161 88 244.5t222 83.5h69q134 0 221.5 -83.5t87.5 -244.5v-262q0 -161 -87.5 -244.5t-221.5 -83.5h-69q-134 0 -222 83.5t-88 244.5zM287 459h229v344 q0 54 -30 84.5t-85 30.5t-84.5 -30.5t-29.5 -84.5v-344zM287 1548q0 -54 29.5 -84t84.5 -30t85 30t30 84v230q0 54 -30 84t-85 30t-84.5 -30t-29.5 -84v-230z" />
<glyph unicode="&#xe6;" horiz-adv-x="1118" d="M57 0v1507q0 161 88 244.5t222 83.5h34q63 0 115 -27v27h574v-229h-345v-574h230v-229h-230v-574h345v-229h-574v459h-229v-459h-230zM287 688h229v803q0 54 -30 84.5t-85 30.5t-84.5 -30.5t-29.5 -84.5v-803z" />
<glyph unicode="&#xe7;" horiz-adv-x="774" d="M57 328v1179q0 161 88 244.5t222 83.5h69q134 0 221.5 -83.5t87.5 -244.5v-131h-229v115q0 54 -30 84.5t-85 30.5t-84.5 -30.5t-29.5 -84.5v-1147q0 -54 29.5 -84.5t84.5 -30.5t85 30.5t30 84.5v115h229v-131q0 -161 -87.5 -244.5t-221.5 -83.5h-69q-134 0 -222 83.5 t-88 244.5zM272 -287l29 230h229l-28 -230h-230z" />
<glyph unicode="&#xe8;" horiz-adv-x="659" d="M57 0v1835h574v-229h-344v-574h229v-229h-229v-574h344v-229h-574zM201 2122h229l57 -230h-229z" />
<glyph unicode="&#xe9;" horiz-adv-x="659" d="M57 0v1835h574v-229h-344v-574h229v-229h-229v-574h344v-229h-574zM229 1892l58 230h229l-57 -230h-230z" />
<glyph unicode="&#xea;" horiz-adv-x="659" d="M57 0v1835h574v-229h-344v-574h229v-229h-229v-574h344v-229h-574zM57 1892l58 230h229l-57 -230h-230zM344 2122h229l58 -230h-230z" />
<glyph unicode="&#xeb;" horiz-adv-x="659" d="M57 0v1835h574v-229h-344v-574h229v-229h-229v-574h344v-229h-574zM57 1892v230h230v-230h-230zM401 1892v230h230v-230h-230z" />
<glyph unicode="&#xec;" horiz-adv-x="344" d="M0 2122h229l58 -230h-230zM57 0v1835h230v-1835h-230z" />
<glyph unicode="&#xed;" horiz-adv-x="344" d="M57 0v1835h230v-1835h-230zM57 1892l58 230h229l-57 -230h-230z" />
<glyph unicode="&#xee;" horiz-adv-x="344" d="M-115 1892l58 230h229l-57 -230h-230zM57 0v1835h230v-1835h-230zM172 2122h229l58 -230h-230z" />
<glyph unicode="&#xef;" horiz-adv-x="344" d="M-115 1892v230h230v-230h-230zM57 0v1835h230v-1835h-230zM229 1892v230h230v-230h-230z" />
<glyph unicode="&#xf0;" horiz-adv-x="888" d="M29 803v229h114v803h379q134 0 221.5 -83.5t87.5 -244.5v-1179q0 -161 -87.5 -244.5t-221.5 -83.5h-379v803h-114zM373 229h114q55 0 85 30.5t30 84.5v1147q0 54 -30 84.5t-85 30.5h-114v-574h114v-229h-114v-574z" />
<glyph unicode="&#xf1;" d="M57 0v1606h230v-27q52 27 114 27h35q134 0 221.5 -83.5t87.5 -244.5v-1278h-229v1262q0 54 -30 84t-85 30t-84.5 -30t-29.5 -84v-1262h-230zM57 1663v131q0 161 88 244.5t222 83.5h34v-230q55 0 85 30.5t30 84.5v115h229v-131q0 -161 -87.5 -244.5t-221.5 -83.5h-35v229 q-55 0 -84.5 -30t-29.5 -84v-115h-230z" />
<glyph unicode="&#xf2;" d="M57 328v1179q0 161 88 244.5t222 83.5h69q134 0 221.5 -83.5t87.5 -244.5v-1179q0 -161 -87.5 -244.5t-221.5 -83.5h-69q-134 0 -222 83.5t-88 244.5zM229 2122h230l57 -230h-229zM287 344q0 -54 29.5 -84.5t84.5 -30.5t85 30.5t30 84.5v1147q0 54 -30 84.5t-85 30.5 t-84.5 -30.5t-29.5 -84.5v-1147z" />
<glyph unicode="&#xf3;" d="M57 328v1179q0 161 88 244.5t222 83.5h69q134 0 221.5 -83.5t87.5 -244.5v-1179q0 -161 -87.5 -244.5t-221.5 -83.5h-69q-134 0 -222 83.5t-88 244.5zM287 344q0 -54 29.5 -84.5t84.5 -30.5t85 30.5t30 84.5v1147q0 54 -30 84.5t-85 30.5t-84.5 -30.5t-29.5 -84.5v-1147z M287 1892l57 230h229l-57 -230h-229z" />
<glyph unicode="&#xf4;" d="M57 328v1179q0 161 88 244.5t222 83.5h69q134 0 221.5 -83.5t87.5 -244.5v-1179q0 -161 -87.5 -244.5t-221.5 -83.5h-69q-134 0 -222 83.5t-88 244.5zM115 1892l57 230h229l-57 -230h-229zM287 344q0 -54 29.5 -84.5t84.5 -30.5t85 30.5t30 84.5v1147q0 54 -30 84.5 t-85 30.5t-84.5 -30.5t-29.5 -84.5v-1147zM401 2122h230l57 -230h-229z" />
<glyph unicode="&#xf5;" d="M57 328v950q0 161 88 244.5t222 83.5h69q134 0 221.5 -83.5t87.5 -244.5v-950q0 -161 -87.5 -244.5t-221.5 -83.5h-69q-134 0 -222 83.5t-88 244.5zM57 1663v131q0 161 88 244.5t222 83.5h34v-230q55 0 85 30.5t30 84.5v115h229v-131q0 -161 -87.5 -244.5t-221.5 -83.5 h-35v229q-55 0 -84.5 -30t-29.5 -84v-115h-230zM287 344q0 -54 29.5 -84.5t84.5 -30.5t85 30.5t30 84.5v918q0 54 -30 84t-85 30t-84.5 -30t-29.5 -84v-918z" />
<glyph unicode="&#xf6;" d="M57 328v1179q0 161 88 244.5t222 83.5h69q134 0 221.5 -83.5t87.5 -244.5v-1179q0 -161 -87.5 -244.5t-221.5 -83.5h-69q-134 0 -222 83.5t-88 244.5zM57 1892v230h230v-230h-230zM287 344q0 -54 29.5 -84.5t84.5 -30.5t85 30.5t30 84.5v1147q0 54 -30 84.5t-85 30.5 t-84.5 -30.5t-29.5 -84.5v-1147zM516 1892v230h229v-230h-229z" />
<glyph unicode="&#xf7;" horiz-adv-x="1032" d="M57 803v229h918v-229h-918zM401 459v229h230v-229h-230zM401 1147v229h230v-229h-230z" />
<glyph unicode="&#xf8;" horiz-adv-x="974" d="M29 803v229h114v475q0 161 88 244.5t222 83.5h69q134 0 221.5 -83.5t87.5 -244.5v-475h115v-229h-115v-475q0 -161 -87.5 -244.5t-221.5 -83.5h-69q-134 0 -222 83.5t-88 244.5v475h-114zM373 344q0 -54 29.5 -84.5t84.5 -30.5t85 30.5t30 84.5v459h-229v-459zM373 1032 h229v459q0 54 -30 84.5t-85 30.5t-84.5 -30.5t-29.5 -84.5v-459z" />
<glyph unicode="&#xf9;" d="M57 328v1507h230v-1491q0 -54 29.5 -84.5t84.5 -30.5t85 30.5t30 84.5v1491h229v-1507q0 -161 -87.5 -244.5t-221.5 -83.5h-69q-134 0 -222 83.5t-88 244.5zM229 2122h230l57 -230h-229z" />
<glyph unicode="&#xfa;" d="M57 328v1507h230v-1491q0 -54 29.5 -84.5t84.5 -30.5t85 30.5t30 84.5v1491h229v-1507q0 -161 -87.5 -244.5t-221.5 -83.5h-69q-134 0 -222 83.5t-88 244.5zM287 1892l57 230h229l-57 -230h-229z" />
<glyph unicode="&#xfb;" d="M57 328v1507h230v-1491q0 -54 29.5 -84.5t84.5 -30.5t85 30.5t30 84.5v1491h229v-1507q0 -161 -87.5 -244.5t-221.5 -83.5h-69q-134 0 -222 83.5t-88 244.5zM115 1892l57 230h229l-57 -230h-229zM401 2122h230l57 -230h-229z" />
<glyph unicode="&#xfc;" d="M57 328v1507h230v-1491q0 -54 29.5 -84.5t84.5 -30.5t85 30.5t30 84.5v1491h229v-1507q0 -161 -87.5 -244.5t-221.5 -83.5h-69q-134 0 -222 83.5t-88 244.5zM57 1892v230h230v-230h-230zM516 1892v230h229v-230h-229z" />
<glyph unicode="&#xfd;" horiz-adv-x="745" d="M29 1835h229l115 -459l114 459h230l-230 -917v-918h-229v918zM256 1892l57 230h230l-58 -230h-229z" />
<glyph unicode="&#xfe;" horiz-adv-x="774" d="M57 0v1835h230v-344h149q134 0 221.5 -83.5t87.5 -244.5v-491q0 -161 -87.5 -244.5t-221.5 -83.5h-149v-344h-230zM287 573h114q55 0 85 30.5t30 84.5v459q0 54 -30 84.5t-85 30.5h-114v-689z" />
<glyph unicode="&#xff;" horiz-adv-x="745" d="M29 1835h229l115 -459l114 459h230l-230 -917v-918h-229v918zM29 1892v230h229v-230h-229zM487 1892v230h230v-230h-230z" />
<glyph unicode="&#x152;" horiz-adv-x="1118" d="M57 328v1179q0 161 88 244.5t222 83.5h34q63 0 115 -27v27h574v-229h-345v-574h230v-229h-230v-574h345v-229h-574v27q-52 -27 -115 -27h-34q-134 0 -222 83.5t-88 244.5zM287 344q0 -54 29.5 -84.5t84.5 -30.5t85 30.5t30 84.5v1147q0 54 -30 84.5t-85 30.5t-84.5 -30.5 t-29.5 -84.5v-1147z" />
<glyph unicode="&#x153;" horiz-adv-x="1118" d="M57 328v1179q0 161 88 244.5t222 83.5h34q63 0 115 -27v27h574v-229h-345v-574h230v-229h-230v-574h345v-229h-574v27q-52 -27 -115 -27h-34q-134 0 -222 83.5t-88 244.5zM287 344q0 -54 29.5 -84.5t84.5 -30.5t85 30.5t30 84.5v1147q0 54 -30 84.5t-85 30.5t-84.5 -30.5 t-29.5 -84.5v-1147z" />
<glyph unicode="&#x178;" horiz-adv-x="745" d="M29 1835h229l115 -459l114 459h230l-230 -917v-918h-229v918zM29 1892v230h229v-230h-229zM487 1892v230h230v-230h-230z" />
<glyph unicode="&#x2c6;" horiz-adv-x="573" d="M0 1892l57 230h230l-58 -230h-229zM287 2122h229l57 -230h-229z" />
<glyph unicode="&#x2dc;" horiz-adv-x="688" d="M0 1663v131q0 161 87.5 244.5t221.5 83.5h35v-230q55 0 85 30.5t30 84.5v115h229v-131q0 -161 -87.5 -244.5t-221.5 -83.5h-35v229q-55 0 -85 -30t-30 -84v-115h-229z" />
<glyph unicode="&#x2000;" horiz-adv-x="1061" />
<glyph unicode="&#x2001;" horiz-adv-x="2122" />
<glyph unicode="&#x2002;" horiz-adv-x="1061" />
<glyph unicode="&#x2003;" horiz-adv-x="2122" />
<glyph unicode="&#x2004;" horiz-adv-x="707" />
<glyph unicode="&#x2005;" horiz-adv-x="530" />
<glyph unicode="&#x2006;" horiz-adv-x="353" />
<glyph unicode="&#x2007;" horiz-adv-x="353" />
<glyph unicode="&#x2008;" horiz-adv-x="265" />
<glyph unicode="&#x2009;" horiz-adv-x="424" />
<glyph unicode="&#x200a;" horiz-adv-x="117" />
<glyph unicode="&#x2010;" horiz-adv-x="458" d="M57 803v229h344v-229h-344z" />
<glyph unicode="&#x2011;" horiz-adv-x="458" d="M57 803v229h344v-229h-344z" />
<glyph unicode="&#x2012;" horiz-adv-x="458" d="M57 803v229h344v-229h-344z" />
<glyph unicode="&#x2013;" horiz-adv-x="573" d="M57 803v229h459v-229h-459z" />
<glyph unicode="&#x2014;" horiz-adv-x="1032" d="M57 803v229h918v-229h-918z" />
<glyph unicode="&#x2018;" horiz-adv-x="344" d="M29 1376l57 459h229l-57 -459h-229z" />
<glyph unicode="&#x2019;" horiz-adv-x="344" d="M29 1376l57 459h229l-57 -459h-229z" />
<glyph unicode="&#x201a;" horiz-adv-x="344" d="M29 -229l57 458h229l-57 -458h-229z" />
<glyph unicode="&#x201c;" horiz-adv-x="688" d="M29 1376l57 459h229l-57 -459h-229zM373 1376l57 459h229l-57 -459h-229z" />
<glyph unicode="&#x201d;" horiz-adv-x="688" d="M29 1376l57 459h229l-57 -459h-229zM373 1376l57 459h229l-57 -459h-229z" />
<glyph unicode="&#x201e;" horiz-adv-x="688" d="M29 -229l57 458h229l-57 -458h-229zM373 -229l57 458h229l-57 -458h-229z" />
<glyph unicode="&#x2022;" d="M57 786v263q0 108 43 183.5t111.5 109.5t155.5 34h69q64 0 119 -20t98 -59t67.5 -102.5t24.5 -145.5v-263q0 -82 -24.5 -145.5t-67.5 -102.5t-98 -59t-119 -20h-69q-87 0 -155.5 34t-111.5 109.5t-43 183.5zM287 803q0 -54 29.5 -84.5t84.5 -30.5t85 30.5t30 84.5v229 q0 54 -30 84.5t-85 30.5t-84.5 -30.5t-29.5 -84.5v-229z" />
<glyph unicode="&#x2026;" horiz-adv-x="1032" d="M57 0v229h230v-229h-230zM401 0v229h230v-229h-230zM745 0v229h230v-229h-230z" />
<glyph unicode="&#x202f;" horiz-adv-x="424" />
<glyph unicode="&#x2039;" horiz-adv-x="458" d="M57 918l115 458h229l-114 -458l114 -459h-229z" />
<glyph unicode="&#x203a;" horiz-adv-x="458" d="M57 459l115 459h229l-114 -459h-230zM57 1376h230l114 -458h-229z" />
<glyph unicode="&#x205f;" horiz-adv-x="530" />
<glyph unicode="&#x20ac;" horiz-adv-x="860" d="M29 803v229h114v475q0 161 88 244.5t222 83.5h69q134 0 221.5 -83.5t87.5 -244.5v-131h-229v115q0 54 -30 84.5t-85 30.5t-84.5 -30.5t-29.5 -84.5v-459h229v-229h-229v-459q0 -54 29.5 -84.5t84.5 -30.5t85 30.5t30 84.5v115h229v-131q0 -161 -87.5 -244.5t-221.5 -83.5 h-69q-134 0 -222 83.5t-88 244.5v475h-114z" />
<glyph unicode="&#x2122;" horiz-adv-x="2007" d="M57 1606v229h688v-229h-229v-688h-229v688h-230zM803 918v917h229v-27q52 27 115 27q83 0 135.5 -20t93.5 -58q89 78 230 78h34q134 0 222 -83.5t88 -244.5v-589h-230v573q0 54 -29.5 84.5t-84.5 30.5t-85 -30.5t-30 -84.5v-573h-229v573q0 54 -30 84.5t-85 30.5 t-85 -30.5t-30 -84.5v-573h-229z" />
<glyph unicode="&#x25fc;" horiz-adv-x="1832" d="M0 0v1833h1833v-1833h-1833z" />
</font>
</defs>
</svg>
